<svg width="383" height="153" viewBox="0 0 383 153" fill="none" xmlns="http://www.w3.org/2000/svg">
<path d="M191.094 20.7343L118.722 22.6389C118.761 22.5862 118.803 22.5312 118.847 22.4737C119.32 21.8579 120.066 20.9703 121.15 19.9011C123.318 17.763 126.838 14.8962 132.225 12.0235C142.997 6.27842 161.251 0.5 191.107 0.5C220.964 0.5 239.218 6.27842 249.99 12.0235C255.376 14.8962 258.897 17.763 261.064 19.9011C262.148 20.9703 262.895 21.8579 263.368 22.4737C263.412 22.5312 263.454 22.5862 263.493 22.6389L191.12 20.7343L191.107 20.734L191.094 20.7343Z" fill="white" stroke="white"/>
<path d="M108.136 27.541L108.183 27.5253H277.899L277.952 27.5419C278.035 27.5679 278.159 27.6067 278.322 27.6582C278.648 27.7612 279.129 27.9145 279.75 28.116C280.993 28.519 282.795 29.1142 285.032 29.8829C289.507 31.4202 295.72 33.6506 302.673 36.4227C316.59 41.9713 333.432 49.6739 345.243 58.3149C352.961 63.9616 362.111 72.1482 369.342 78.9334C372.955 82.324 376.085 85.361 378.311 87.5502C379.425 88.6448 380.312 89.5273 380.921 90.1361C380.952 90.1674 380.982 90.198 381.012 90.2278H1.30671C1.3326 90.2047 1.35897 90.1812 1.38583 90.1572C2.06699 89.5493 3.05906 88.668 4.30214 87.5748C6.78837 85.3883 10.2783 82.3546 14.2925 78.9659C22.325 72.1852 32.4427 63.9954 40.8183 58.3254C52.9465 50.1149 69.7974 42.4093 83.6387 36.7505C90.5549 33.9229 96.7115 31.6097 101.139 30.0035C103.352 29.2005 105.133 28.5742 106.36 28.1489C106.974 27.9362 107.449 27.7737 107.771 27.6645C107.932 27.6099 108.054 27.5686 108.136 27.541Z" fill="white" stroke="white"/>
<path d="M1.72933 93.6005C1.5343 93.4387 1.36334 93.291 1.21467 93.1582H381.213C381.091 93.3004 380.946 93.4614 380.775 93.64C379.996 94.4561 378.681 95.64 376.566 97.0699C372.335 99.9305 364.904 103.772 352.15 107.623C326.638 115.324 279.881 123.044 194.968 123.044C110.057 123.044 61.365 115.325 33.9168 107.62C20.1941 103.768 11.7891 99.9217 6.82567 97.0513C4.34427 95.6163 2.72382 94.4256 1.72933 93.6005Z" fill="white" stroke="white"/>
<path d="M146.709 38.6076H173.734C173.734 38.6076 168.24 51.3037 166.013 59.8418C163.322 70.1579 162.152 86.8671 162.152 86.8671H110.032C110.032 86.8671 118.073 69.4842 125.475 59.8418C132.616 50.5391 146.709 38.6076 146.709 38.6076Z" fill="black"/>
<path d="M235.507 38.6076H208.482C208.482 38.6076 213.976 51.3037 216.203 59.8418C218.894 70.1579 220.064 86.8671 220.064 86.8671H272.184C272.184 86.8671 264.143 69.4842 256.741 59.8418C249.6 50.5391 235.507 38.6076 235.507 38.6076Z" fill="black"/>
<path d="M266.393 38.6076C266.393 38.6076 311.215 48.8897 328.165 61.7721C342.111 72.3718 360.981 86.8671 360.981 86.8671H322.065C322.065 86.8671 315.402 77.3761 308.861 67.5633C300.033 54.3192 266.393 38.6076 266.393 38.6076Z" fill="black"/>
<path d="M117.753 38.6076C117.753 38.6076 72.931 48.8897 55.9808 61.7721C42.0343 72.3718 23.1643 86.8671 23.1643 86.8671H62.0808C62.0808 86.8671 68.7439 77.3761 75.2846 67.5633C84.1124 54.3192 117.753 38.6076 117.753 38.6076Z" fill="black"/>
<path d="M262.532 123.544C262.532 123.544 231.419 152.5 193.039 152.5C154.658 152.5 123.545 123.544 123.545 123.544C123.545 123.544 165.889 125.475 193.039 125.475C220.188 125.475 262.532 123.544 262.532 123.544Z" fill="white"/>
</svg>
