<svg width="1692" height="1158" viewBox="0 0 1692 1158" fill="none" xmlns="http://www.w3.org/2000/svg">
<path d="M17 114.857C17 114.857 187.036 249.965 312.885 243.795C462.136 236.478 479.408 13.1243 628.233 26.5847C722.764 35.1346 746.118 136.541 840.663 144.943C946.912 154.385 987.437 51.4491 1093.67 41.7927C1245.99 27.9461 1311.01 192.03 1462.78 173.045C1532.11 164.372 1632 114.857 1632 114.857" stroke="url(#paint0_linear_99_39)" stroke-width="50"/>
<path d="M19 146.45C19 146.45 189.036 280.938 314.885 274.796C464.136 267.512 481.408 45.1833 630.233 58.582C724.764 67.0927 748.118 168.034 842.663 176.397C948.912 185.796 989.437 83.3323 1095.67 73.7202C1247.99 59.9371 1313.01 223.269 1464.78 204.37C1534.11 195.738 1634 146.45 1634 146.45" stroke="url(#paint1_linear_99_39)" stroke-width="50"/>
<path d="M21 177.857C21 177.857 191.036 312.965 316.885 306.795C466.136 299.478 483.408 76.1243 632.233 89.5847C726.764 98.1346 750.118 199.541 844.663 207.943C950.912 217.385 991.437 114.449 1097.67 104.793C1249.99 90.9461 1315.01 255.03 1466.78 236.045C1536.11 227.372 1636 177.857 1636 177.857" stroke="url(#paint2_linear_99_39)" stroke-width="50"/>
<path d="M23 209.857C23 209.857 193.036 344.965 318.885 338.795C468.136 331.478 485.408 108.124 634.233 121.585C728.764 130.135 752.118 231.541 846.663 239.943C952.912 249.385 993.437 146.449 1099.67 136.793C1251.99 122.946 1317.01 287.03 1468.78 268.045C1538.11 259.372 1638 209.857 1638 209.857" stroke="url(#paint3_linear_99_39)" stroke-width="50"/>
<path d="M25 241.45C25 241.45 195.036 375.938 320.885 369.796C470.136 362.512 487.408 140.183 636.233 153.582C730.764 162.093 754.118 263.034 848.663 271.397C954.912 280.796 995.437 178.332 1101.67 168.72C1253.99 154.937 1319.01 318.269 1470.78 299.37C1540.11 290.738 1640 241.45 1640 241.45" stroke="url(#paint4_linear_99_39)" stroke-width="50"/>
<path d="M27 272.857C27 272.857 197.036 407.965 322.885 401.795C472.136 394.478 489.408 171.124 638.233 184.585C732.764 193.135 756.118 294.541 850.663 302.943C956.912 312.385 997.437 209.449 1103.67 199.793C1255.99 185.946 1321.01 350.03 1472.78 331.045C1542.11 322.372 1642 272.857 1642 272.857" stroke="url(#paint5_linear_99_39)" stroke-width="50"/>
<path d="M29 304.857C29 304.857 199.036 439.965 324.885 433.795C474.136 426.478 491.408 203.124 640.233 216.585C734.764 225.135 758.118 326.541 852.663 334.943C958.912 344.385 999.437 241.449 1105.67 231.793C1257.99 217.946 1323.01 382.03 1474.78 363.045C1544.11 354.372 1644 304.857 1644 304.857" stroke="url(#paint6_linear_99_39)" stroke-width="50"/>
<path d="M31 336.45C31 336.45 201.036 470.938 326.885 464.796C476.136 457.512 493.408 235.183 642.233 248.582C736.764 257.093 760.118 358.034 854.663 366.397C960.912 375.796 1001.44 273.332 1107.67 263.72C1259.99 249.937 1325.01 413.269 1476.78 394.37C1546.11 385.738 1646 336.45 1646 336.45" stroke="url(#paint7_linear_99_39)" stroke-width="50"/>
<path d="M33 367.857C33 367.857 203.036 502.965 328.885 496.795C478.136 489.478 495.408 266.124 644.233 279.585C738.764 288.135 762.118 389.541 856.663 397.943C962.912 407.385 1003.44 304.449 1109.67 294.793C1261.99 280.946 1327.01 445.03 1478.78 426.045C1548.11 417.372 1648 367.857 1648 367.857" stroke="url(#paint8_linear_99_39)" stroke-width="50"/>
<path d="M35 399.857C35 399.857 205.036 534.965 330.885 528.795C480.136 521.478 497.408 298.124 646.233 311.585C740.764 320.135 764.118 421.541 858.663 429.943C964.912 439.385 1005.44 336.449 1111.67 326.793C1263.99 312.946 1329.01 477.03 1480.78 458.045C1550.11 449.372 1650 399.857 1650 399.857" stroke="url(#paint9_linear_99_39)" stroke-width="50"/>
<path d="M37 431.45C37 431.45 207.036 565.938 332.885 559.796C482.136 552.512 499.408 330.183 648.233 343.582C742.764 352.093 766.118 453.034 860.663 461.397C966.912 470.796 1007.44 368.332 1113.67 358.72C1265.99 344.937 1331.01 508.269 1482.78 489.37C1552.11 480.738 1652 431.45 1652 431.45" stroke="url(#paint10_linear_99_39)" stroke-width="50"/>
<path d="M39 462.857C39 462.857 209.036 597.965 334.885 591.795C484.136 584.478 501.408 361.124 650.233 374.585C744.764 383.135 768.118 484.541 862.663 492.943C968.912 502.385 1009.44 399.449 1115.67 389.793C1267.99 375.946 1333.01 540.03 1484.78 521.045C1554.11 512.372 1654 462.857 1654 462.857" stroke="url(#paint11_linear_99_39)" stroke-width="50"/>
<path d="M41 494.857C41 494.857 211.036 629.965 336.885 623.795C486.136 616.478 503.408 393.124 652.233 406.585C746.764 415.135 770.118 516.541 864.663 524.943C970.912 534.385 1011.44 431.449 1117.67 421.793C1269.99 407.946 1335.01 572.03 1486.78 553.045C1556.11 544.372 1656 494.857 1656 494.857" stroke="url(#paint12_linear_99_39)" stroke-width="50"/>
<path d="M43 526.45C43 526.45 213.036 660.938 338.885 654.796C488.136 647.512 505.408 425.183 654.233 438.582C748.764 447.093 772.118 548.034 866.663 556.397C972.912 565.796 1013.44 463.332 1119.67 453.72C1271.99 439.937 1337.01 603.269 1488.78 584.37C1558.11 575.738 1658 526.45 1658 526.45" stroke="url(#paint13_linear_99_39)" stroke-width="50"/>
<path d="M45 557.857C45 557.857 215.036 692.965 340.885 686.795C490.136 679.478 507.408 456.124 656.233 469.585C750.764 478.135 774.118 579.541 868.663 587.943C974.912 597.385 1015.44 494.449 1121.67 484.793C1273.99 470.946 1339.01 635.03 1490.78 616.045C1560.11 607.372 1660 557.857 1660 557.857" stroke="url(#paint14_linear_99_39)" stroke-width="50"/>
<path d="M47 589.857C47 589.857 217.036 724.965 342.885 718.795C492.136 711.478 509.408 488.124 658.233 501.585C752.764 510.135 776.118 611.541 870.663 619.943C976.912 629.385 1017.44 526.449 1123.67 516.793C1275.99 502.946 1341.01 667.03 1492.78 648.045C1562.11 639.372 1662 589.857 1662 589.857" stroke="url(#paint15_linear_99_39)" stroke-width="50"/>
<path d="M49 621.45C49 621.45 219.036 755.938 344.885 749.796C494.136 742.512 511.408 520.183 660.233 533.582C754.764 542.093 778.118 643.034 872.663 651.397C978.912 660.796 1019.44 558.332 1125.67 548.72C1277.99 534.937 1343.01 698.269 1494.78 679.37C1564.11 670.738 1664 621.45 1664 621.45" stroke="url(#paint16_linear_99_39)" stroke-width="50"/>
<path d="M51 652.857C51 652.857 220.931 787.965 346.702 781.795C495.86 774.478 513.122 551.124 661.854 564.585C756.327 573.135 779.667 674.541 874.153 682.943C980.336 692.385 1020.84 589.449 1127 579.793C1279.23 565.946 1344.21 730.03 1495.89 711.045C1565.17 702.372 1665 652.857 1665 652.857" stroke="url(#paint17_linear_99_39)" stroke-width="50"/>
<path d="M16 114.857C16 114.857 186.036 249.965 311.885 243.795C461.136 236.478 478.408 13.1243 627.233 26.5847C721.764 35.1346 745.118 136.541 839.663 144.943C945.912 154.385 986.437 51.4491 1092.67 41.7927C1244.99 27.9461 1310.01 192.03 1461.78 173.045C1531.11 164.372 1631 114.857 1631 114.857" stroke="url(#paint18_linear_99_39)" stroke-width="50"/>
<path d="M18 146.857C18 146.857 188.036 281.965 313.885 275.795C463.136 268.478 480.408 45.1243 629.233 58.5847C723.764 67.1346 747.118 168.541 841.663 176.943C947.912 186.385 988.437 83.4491 1094.67 73.7927C1246.99 59.9461 1312.01 224.03 1463.78 205.045C1533.11 196.372 1633 146.857 1633 146.857" stroke="url(#paint19_linear_99_39)" stroke-width="50"/>
<path d="M19 178.857C19 178.857 189.036 313.965 314.885 307.795C464.136 300.478 481.408 77.1243 630.233 90.5847C724.764 99.1346 748.118 200.541 842.663 208.943C948.912 218.385 989.437 115.449 1095.67 105.793C1247.99 91.9461 1313.01 256.03 1464.78 237.045C1534.11 228.372 1634 178.857 1634 178.857" stroke="url(#paint20_linear_99_39)" stroke-width="50"/>
<path d="M20 210.857C20 210.857 190.036 345.965 315.885 339.795C465.136 332.478 482.408 109.124 631.233 122.585C725.764 131.135 749.118 232.541 843.663 240.943C949.912 250.385 990.437 147.449 1096.67 137.793C1248.99 123.946 1314.01 288.03 1465.78 269.045C1535.11 260.372 1635 210.857 1635 210.857" stroke="url(#paint21_linear_99_39)" stroke-width="50"/>
<path d="M22 242.45C22 242.45 191.931 376.938 317.702 370.796C466.86 363.512 484.122 141.183 632.854 154.582C727.327 163.093 750.667 264.034 845.153 272.397C951.336 281.796 991.836 179.332 1098 169.72C1250.23 155.937 1315.21 319.269 1466.89 300.37C1536.17 291.738 1636 242.45 1636 242.45" stroke="url(#paint22_linear_99_39)" stroke-width="50"/>
<path d="M23 274.45C23 274.45 193.036 408.938 318.885 402.796C468.136 395.512 485.408 173.183 634.233 186.582C728.764 195.093 752.118 296.034 846.663 304.397C952.912 313.796 993.437 211.332 1099.67 201.72C1251.99 187.937 1317.01 351.269 1468.78 332.37C1538.11 323.738 1638 274.45 1638 274.45" stroke="url(#paint23_linear_99_39)" stroke-width="50"/>
<path d="M24 306.45C24 306.45 194.036 440.938 319.885 434.796C469.136 427.512 486.408 205.183 635.233 218.582C729.764 227.093 753.118 328.034 847.663 336.397C953.912 345.796 994.437 243.332 1100.67 233.72C1252.99 219.937 1318.01 383.269 1469.78 364.37C1539.11 355.738 1639 306.45 1639 306.45" stroke="url(#paint24_linear_99_39)" stroke-width="50"/>
<path d="M26 338.45C26 338.45 195.931 472.938 321.702 466.796C470.86 459.512 488.122 237.183 636.854 250.582C731.327 259.093 754.667 360.034 849.153 368.397C955.336 377.796 995.836 275.332 1102 265.72C1254.23 251.937 1319.21 415.269 1470.89 396.37C1540.17 387.738 1640 338.45 1640 338.45" stroke="url(#paint25_linear_99_39)" stroke-width="50"/>
<path d="M27 370.45C27 370.45 197.036 504.938 322.885 498.796C472.136 491.512 489.408 269.183 638.233 282.582C732.764 291.093 756.118 392.034 850.663 400.397C956.912 409.796 997.437 307.332 1103.67 297.72C1255.99 283.937 1321.01 447.269 1472.78 428.37C1542.11 419.738 1642 370.45 1642 370.45" stroke="url(#paint26_linear_99_39)" stroke-width="50"/>
<path d="M28 402.45C28 402.45 198.036 536.938 323.885 530.796C473.136 523.512 490.408 301.183 639.233 314.582C733.764 323.093 757.118 424.034 851.663 432.397C957.912 441.796 998.437 339.332 1104.67 329.72C1256.99 315.937 1322.01 479.269 1473.78 460.37C1543.11 451.738 1643 402.45 1643 402.45" stroke="url(#paint27_linear_99_39)" stroke-width="50"/>
<path d="M30 433.857C30 433.857 199.931 568.965 325.702 562.795C474.86 555.478 492.122 332.124 640.854 345.585C735.327 354.135 758.667 455.541 853.153 463.943C959.336 473.385 999.836 370.449 1106 360.793C1258.23 346.946 1323.21 511.03 1474.89 492.045C1544.17 483.372 1644 433.857 1644 433.857" stroke="url(#paint28_linear_99_39)" stroke-width="50"/>
<path d="M31 465.857C31 465.857 201.036 600.965 326.885 594.795C476.136 587.478 493.408 364.124 642.233 377.585C736.764 386.135 760.118 487.541 854.663 495.943C960.912 505.385 1001.44 402.449 1107.67 392.793C1259.99 378.946 1325.01 543.03 1476.78 524.045C1546.11 515.372 1646 465.857 1646 465.857" stroke="url(#paint29_linear_99_39)" stroke-width="50"/>
<path d="M33 497.45C33 497.45 203.036 631.938 328.885 625.796C478.136 618.512 495.408 396.183 644.233 409.582C738.764 418.093 762.118 519.034 856.663 527.397C962.912 536.796 1003.44 434.332 1109.67 424.72C1261.99 410.937 1327.01 574.269 1478.78 555.37C1548.11 546.738 1648 497.45 1648 497.45" stroke="url(#paint30_linear_99_39)" stroke-width="50"/>
<path d="M35 528.857C35 528.857 205.036 663.965 330.885 657.795C480.136 650.478 497.408 427.124 646.233 440.585C740.764 449.135 764.118 550.541 858.663 558.943C964.912 568.385 1005.44 465.449 1111.67 455.793C1263.99 441.946 1329.01 606.03 1480.78 587.045C1550.11 578.372 1650 528.857 1650 528.857" stroke="url(#paint31_linear_99_39)" stroke-width="50"/>
<path d="M37 560.857C37 560.857 207.036 695.965 332.885 689.795C482.136 682.478 499.408 459.124 648.233 472.585C742.764 481.135 766.118 582.541 860.663 590.943C966.912 600.385 1007.44 497.449 1113.67 487.793C1265.99 473.946 1331.01 638.03 1482.78 619.045C1552.11 610.372 1652 560.857 1652 560.857" stroke="url(#paint32_linear_99_39)" stroke-width="50"/>
<path d="M39 592.45C39 592.45 209.036 726.938 334.885 720.796C484.136 713.512 501.408 491.183 650.233 504.582C744.764 513.093 768.118 614.034 862.663 622.397C968.912 631.796 1009.44 529.332 1115.67 519.72C1267.99 505.937 1333.01 669.269 1484.78 650.37C1554.11 641.738 1654 592.45 1654 592.45" stroke="url(#paint33_linear_99_39)" stroke-width="50"/>
<path d="M41 623.857C41 623.857 211.036 758.965 336.885 752.795C486.136 745.478 503.408 522.124 652.233 535.585C746.764 544.135 770.118 645.541 864.663 653.943C970.912 663.385 1011.44 560.449 1117.67 550.793C1269.99 536.946 1335.01 701.03 1486.78 682.045C1556.11 673.372 1656 623.857 1656 623.857" stroke="url(#paint34_linear_99_39)" stroke-width="50"/>
<path d="M43 655.857C43 655.857 213.036 790.965 338.885 784.795C488.136 777.478 505.408 554.124 654.233 567.585C748.764 576.135 772.118 677.541 866.663 685.943C972.912 695.385 1013.44 592.449 1119.67 582.793C1271.99 568.946 1337.01 733.03 1488.78 714.045C1558.11 705.372 1658 655.857 1658 655.857" stroke="url(#paint35_linear_99_39)" stroke-width="50"/>
<path d="M45 687.45C45 687.45 215.036 821.938 340.885 815.796C490.136 808.512 507.408 586.183 656.233 599.582C750.764 608.093 774.118 709.034 868.663 717.397C974.912 726.796 1015.44 624.332 1121.67 614.72C1273.99 600.937 1339.01 764.269 1490.78 745.37C1560.11 736.738 1660 687.45 1660 687.45" stroke="url(#paint36_linear_99_39)" stroke-width="50"/>
<path d="M47 718.857C47 718.857 217.036 853.965 342.885 847.795C492.136 840.478 509.408 617.124 658.233 630.585C752.764 639.135 776.118 740.541 870.663 748.943C976.912 758.385 1017.44 655.449 1123.67 645.793C1275.99 631.946 1341.01 796.03 1492.78 777.045C1562.11 768.372 1662 718.857 1662 718.857" stroke="url(#paint37_linear_99_39)" stroke-width="50"/>
<path d="M49 750.857C49 750.857 219.036 885.965 344.885 879.795C494.136 872.478 511.408 649.124 660.233 662.585C754.764 671.135 778.118 772.541 872.663 780.943C978.912 790.385 1019.44 687.449 1125.67 677.793C1277.99 663.946 1343.01 828.03 1494.78 809.045C1564.11 800.372 1664 750.857 1664 750.857" stroke="url(#paint38_linear_99_39)" stroke-width="50"/>
<path d="M51 782.45C51 782.45 221.036 916.938 346.885 910.796C496.136 903.512 513.408 681.183 662.233 694.582C756.764 703.093 780.118 804.034 874.663 812.397C980.912 821.796 1021.44 719.332 1127.67 709.72C1279.99 695.937 1345.01 859.269 1496.78 840.37C1566.11 831.738 1666 782.45 1666 782.45" stroke="url(#paint39_linear_99_39)" stroke-width="50"/>
<path d="M53 813.857C53 813.857 223.036 948.965 348.885 942.795C498.136 935.478 515.408 712.124 664.233 725.585C758.764 734.135 782.118 835.541 876.663 843.943C982.912 853.385 1023.44 750.449 1129.67 740.793C1281.99 726.946 1347.01 891.03 1498.78 872.045C1568.11 863.372 1668 813.857 1668 813.857" stroke="url(#paint40_linear_99_39)" stroke-width="50"/>
<path d="M55 845.857C55 845.857 225.036 980.965 350.885 974.795C500.136 967.478 517.408 744.124 666.233 757.585C760.764 766.135 784.118 867.541 878.663 875.943C984.912 885.385 1025.44 782.449 1131.67 772.793C1283.99 758.946 1349.01 923.03 1500.78 904.045C1570.11 895.372 1670 845.857 1670 845.857" stroke="url(#paint41_linear_99_39)" stroke-width="50"/>
<path d="M57 877.45C57 877.45 227.036 1011.94 352.885 1005.8C502.136 998.512 519.408 776.183 668.233 789.582C762.764 798.093 786.118 899.034 880.663 907.397C986.912 916.796 1027.44 814.332 1133.67 804.72C1285.99 790.937 1351.01 954.269 1502.78 935.37C1572.11 926.738 1672 877.45 1672 877.45" stroke="url(#paint42_linear_99_39)" stroke-width="50"/>
<path d="M59 908.857C59 908.857 229.036 1043.96 354.885 1037.79C504.136 1030.48 521.408 807.124 670.233 820.585C764.764 829.135 788.118 930.541 882.663 938.943C988.912 948.385 1029.44 845.449 1135.67 835.793C1287.99 821.946 1353.01 986.03 1504.78 967.045C1574.11 958.372 1674 908.857 1674 908.857" stroke="url(#paint43_linear_99_39)" stroke-width="50"/>
<path d="M61 940.857C61 940.857 231.036 1075.96 356.885 1069.79C506.136 1062.48 523.408 839.124 672.233 852.585C766.764 861.135 790.118 962.541 884.663 970.943C990.912 980.385 1031.44 877.449 1137.67 867.793C1289.99 853.946 1355.01 1018.03 1506.78 999.045C1576.11 990.372 1676 940.857 1676 940.857" stroke="url(#paint44_linear_99_39)" stroke-width="50"/>
<path d="M63 972.45C63 972.45 233.036 1106.94 358.885 1100.8C508.136 1093.51 525.408 871.183 674.233 884.582C768.764 893.093 792.118 994.034 886.663 1002.4C992.912 1011.8 1033.44 909.332 1139.67 899.72C1291.99 885.937 1357.01 1049.27 1508.78 1030.37C1578.11 1021.74 1678 972.45 1678 972.45" stroke="url(#paint45_linear_99_39)" stroke-width="50"/>
<path d="M65 1003.86C65 1003.86 235.036 1138.96 360.885 1132.79C510.136 1125.48 527.408 902.124 676.233 915.585C770.764 924.135 794.118 1025.54 888.663 1033.94C994.912 1043.38 1035.44 940.449 1141.67 930.793C1293.99 916.946 1359.01 1081.03 1510.78 1062.04C1580.11 1053.37 1680 1003.86 1680 1003.86" stroke="url(#paint46_linear_99_39)" stroke-width="50"/>
<path d="M589.59 670V460H696.99V492.4H630.69V545.5H689.49V577.6H630.69V637.6H696.99V670H589.59ZM815.652 529C815.652 517.2 814.052 508.3 810.852 502.3C807.852 496.1 802.052 493 793.452 493C787.052 493 782.152 493.3 778.752 493.9C776.752 494.3 775.152 494.6 773.952 494.8V562.3H792.852C799.852 562.3 805.352 559.3 809.352 553.3C813.552 547.3 815.652 539.2 815.652 529ZM857.352 526.9C857.352 540.1 855.952 551.2 853.152 560.2C850.352 569.2 846.152 576.5 840.552 582.1C834.952 587.7 827.952 591.7 819.552 594.1C811.352 596.5 801.852 597.7 791.052 597.7H773.952V670H732.852V460C738.652 459.6 744.752 459.1 751.152 458.5C756.552 458.1 762.452 457.8 768.852 457.6C775.452 457.2 781.852 457 788.052 457C801.652 457 812.852 458.6 821.652 461.8C830.652 464.8 837.752 469.3 842.952 475.3C848.352 481.1 852.052 488.4 854.052 497.2C856.252 505.8 857.352 515.7 857.352 526.9ZM885.711 494.5V460H928.611V494.5H885.711ZM887.211 670V520H927.111V670H887.211ZM1050.02 670V553.9H1013.42V670H973.52V553.9H954.02V520H973.52V508C973.52 497.8 974.52 489.4 976.52 482.8C978.72 476.2 981.92 471 986.12 467.2C990.52 463.4 995.92 460.8 1002.32 459.4C1008.72 458 1016.22 457.3 1024.82 457.3C1029.62 457.3 1034.52 457.5 1039.52 457.9C1044.72 458.1 1049.62 458.5 1054.22 459.1C1059.02 459.7 1063.52 460.3 1067.72 460.9C1071.92 461.5 1075.62 462.1 1078.82 462.7V496.6C1073.42 495.6 1066.62 494.5 1058.42 493.3C1050.22 492.1 1041.52 491.5 1032.32 491.5C1024.72 491.5 1019.62 492.4 1017.02 494.2C1014.62 495.8 1013.42 499.5 1013.42 505.3V520H1089.92V670H1050.02Z" fill="white"/>
<defs>
<linearGradient id="paint0_linear_99_39" x1="824.5" y1="26" x2="824.5" y2="244" gradientUnits="userSpaceOnUse">
<stop stop-color="#5B197B"/>
<stop offset="1" stop-color="#FEB538"/>
</linearGradient>
<linearGradient id="paint1_linear_99_39" x1="826.5" y1="58" x2="826.5" y2="275" gradientUnits="userSpaceOnUse">
<stop stop-color="#5B197B"/>
<stop offset="1" stop-color="#FEB538"/>
</linearGradient>
<linearGradient id="paint2_linear_99_39" x1="828.5" y1="89" x2="828.5" y2="307" gradientUnits="userSpaceOnUse">
<stop stop-color="#5B197B"/>
<stop offset="1" stop-color="#FEB538"/>
</linearGradient>
<linearGradient id="paint3_linear_99_39" x1="830.5" y1="121" x2="830.5" y2="339" gradientUnits="userSpaceOnUse">
<stop stop-color="#5B197B"/>
<stop offset="1" stop-color="#FEB538"/>
</linearGradient>
<linearGradient id="paint4_linear_99_39" x1="832.5" y1="153" x2="832.5" y2="370" gradientUnits="userSpaceOnUse">
<stop stop-color="#5B197B"/>
<stop offset="1" stop-color="#FEB538"/>
</linearGradient>
<linearGradient id="paint5_linear_99_39" x1="834.5" y1="184" x2="834.5" y2="402" gradientUnits="userSpaceOnUse">
<stop stop-color="#5B197B"/>
<stop offset="1" stop-color="#FEB538"/>
</linearGradient>
<linearGradient id="paint6_linear_99_39" x1="836.5" y1="216" x2="836.5" y2="434" gradientUnits="userSpaceOnUse">
<stop stop-color="#5B197B"/>
<stop offset="1" stop-color="#FEB538"/>
</linearGradient>
<linearGradient id="paint7_linear_99_39" x1="838.5" y1="248" x2="838.5" y2="465" gradientUnits="userSpaceOnUse">
<stop stop-color="#5B197B"/>
<stop offset="1" stop-color="#FEB538"/>
</linearGradient>
<linearGradient id="paint8_linear_99_39" x1="840.5" y1="279" x2="840.5" y2="497" gradientUnits="userSpaceOnUse">
<stop stop-color="#5B197B"/>
<stop offset="1" stop-color="#FEB538"/>
</linearGradient>
<linearGradient id="paint9_linear_99_39" x1="842.5" y1="311" x2="842.5" y2="529" gradientUnits="userSpaceOnUse">
<stop stop-color="#5B197B"/>
<stop offset="1" stop-color="#FEB538"/>
</linearGradient>
<linearGradient id="paint10_linear_99_39" x1="844.5" y1="343" x2="844.5" y2="560" gradientUnits="userSpaceOnUse">
<stop stop-color="#5B197B"/>
<stop offset="1" stop-color="#FEB538"/>
</linearGradient>
<linearGradient id="paint11_linear_99_39" x1="846.5" y1="374" x2="846.5" y2="592" gradientUnits="userSpaceOnUse">
<stop stop-color="#5B197B"/>
<stop offset="1" stop-color="#FEB538"/>
</linearGradient>
<linearGradient id="paint12_linear_99_39" x1="848.5" y1="406" x2="848.5" y2="624" gradientUnits="userSpaceOnUse">
<stop stop-color="#5B197B"/>
<stop offset="1" stop-color="#FEB538"/>
</linearGradient>
<linearGradient id="paint13_linear_99_39" x1="850.5" y1="438" x2="850.5" y2="655" gradientUnits="userSpaceOnUse">
<stop stop-color="#5B197B"/>
<stop offset="1" stop-color="#FEB538"/>
</linearGradient>
<linearGradient id="paint14_linear_99_39" x1="852.5" y1="469" x2="852.5" y2="687" gradientUnits="userSpaceOnUse">
<stop stop-color="#5B197B"/>
<stop offset="1" stop-color="#FEB538"/>
</linearGradient>
<linearGradient id="paint15_linear_99_39" x1="854.5" y1="501" x2="854.5" y2="719" gradientUnits="userSpaceOnUse">
<stop stop-color="#5B197B"/>
<stop offset="1" stop-color="#FEB538"/>
</linearGradient>
<linearGradient id="paint16_linear_99_39" x1="856.5" y1="533" x2="856.5" y2="750" gradientUnits="userSpaceOnUse">
<stop stop-color="#5B197B"/>
<stop offset="1" stop-color="#FEB538"/>
</linearGradient>
<linearGradient id="paint17_linear_99_39" x1="858" y1="564" x2="858" y2="782" gradientUnits="userSpaceOnUse">
<stop stop-color="#5B197B"/>
<stop offset="1" stop-color="#FEB538"/>
</linearGradient>
<linearGradient id="paint18_linear_99_39" x1="823.5" y1="26" x2="823.5" y2="244" gradientUnits="userSpaceOnUse">
<stop stop-color="#5B197B"/>
<stop offset="1" stop-color="#FEB538"/>
</linearGradient>
<linearGradient id="paint19_linear_99_39" x1="825.5" y1="58" x2="825.5" y2="276" gradientUnits="userSpaceOnUse">
<stop stop-color="#5B197B"/>
<stop offset="1" stop-color="#FEB538"/>
</linearGradient>
<linearGradient id="paint20_linear_99_39" x1="826.5" y1="90" x2="826.5" y2="308" gradientUnits="userSpaceOnUse">
<stop stop-color="#5B197B"/>
<stop offset="1" stop-color="#FEB538"/>
</linearGradient>
<linearGradient id="paint21_linear_99_39" x1="827.5" y1="122" x2="827.5" y2="340" gradientUnits="userSpaceOnUse">
<stop stop-color="#5B197B"/>
<stop offset="1" stop-color="#FEB538"/>
</linearGradient>
<linearGradient id="paint22_linear_99_39" x1="829" y1="154" x2="829" y2="371" gradientUnits="userSpaceOnUse">
<stop stop-color="#5B197B"/>
<stop offset="1" stop-color="#FEB538"/>
</linearGradient>
<linearGradient id="paint23_linear_99_39" x1="830.5" y1="186" x2="830.5" y2="403" gradientUnits="userSpaceOnUse">
<stop stop-color="#5B197B"/>
<stop offset="1" stop-color="#FEB538"/>
</linearGradient>
<linearGradient id="paint24_linear_99_39" x1="831.5" y1="218" x2="831.5" y2="435" gradientUnits="userSpaceOnUse">
<stop stop-color="#5B197B"/>
<stop offset="1" stop-color="#FEB538"/>
</linearGradient>
<linearGradient id="paint25_linear_99_39" x1="833" y1="250" x2="833" y2="467" gradientUnits="userSpaceOnUse">
<stop stop-color="#5B197B"/>
<stop offset="1" stop-color="#FEB538"/>
</linearGradient>
<linearGradient id="paint26_linear_99_39" x1="834.5" y1="282" x2="834.5" y2="499" gradientUnits="userSpaceOnUse">
<stop stop-color="#5B197B"/>
<stop offset="1" stop-color="#FEB538"/>
</linearGradient>
<linearGradient id="paint27_linear_99_39" x1="835.5" y1="314" x2="835.5" y2="531" gradientUnits="userSpaceOnUse">
<stop stop-color="#5B197B"/>
<stop offset="1" stop-color="#FEB538"/>
</linearGradient>
<linearGradient id="paint28_linear_99_39" x1="837" y1="345" x2="837" y2="563" gradientUnits="userSpaceOnUse">
<stop stop-color="#5B197B"/>
<stop offset="1" stop-color="#FEB538"/>
</linearGradient>
<linearGradient id="paint29_linear_99_39" x1="838.5" y1="377" x2="838.5" y2="595" gradientUnits="userSpaceOnUse">
<stop stop-color="#5B197B"/>
<stop offset="1" stop-color="#FEB538"/>
</linearGradient>
<linearGradient id="paint30_linear_99_39" x1="840.5" y1="409" x2="840.5" y2="626" gradientUnits="userSpaceOnUse">
<stop stop-color="#5B197B"/>
<stop offset="1" stop-color="#FEB538"/>
</linearGradient>
<linearGradient id="paint31_linear_99_39" x1="842.5" y1="440" x2="842.5" y2="658" gradientUnits="userSpaceOnUse">
<stop stop-color="#5B197B"/>
<stop offset="1" stop-color="#FEB538"/>
</linearGradient>
<linearGradient id="paint32_linear_99_39" x1="844.5" y1="472" x2="844.5" y2="690" gradientUnits="userSpaceOnUse">
<stop stop-color="#5B197B"/>
<stop offset="1" stop-color="#FEB538"/>
</linearGradient>
<linearGradient id="paint33_linear_99_39" x1="846.5" y1="504" x2="846.5" y2="721" gradientUnits="userSpaceOnUse">
<stop stop-color="#5B197B"/>
<stop offset="1" stop-color="#FEB538"/>
</linearGradient>
<linearGradient id="paint34_linear_99_39" x1="848.5" y1="535" x2="848.5" y2="753" gradientUnits="userSpaceOnUse">
<stop stop-color="#5B197B"/>
<stop offset="1" stop-color="#FEB538"/>
</linearGradient>
<linearGradient id="paint35_linear_99_39" x1="850.5" y1="567" x2="850.5" y2="785" gradientUnits="userSpaceOnUse">
<stop stop-color="#5B197B"/>
<stop offset="1" stop-color="#FEB538"/>
</linearGradient>
<linearGradient id="paint36_linear_99_39" x1="852.5" y1="599" x2="852.5" y2="816" gradientUnits="userSpaceOnUse">
<stop stop-color="#5B197B"/>
<stop offset="1" stop-color="#FEB538"/>
</linearGradient>
<linearGradient id="paint37_linear_99_39" x1="854.5" y1="630" x2="854.5" y2="848" gradientUnits="userSpaceOnUse">
<stop stop-color="#5B197B"/>
<stop offset="1" stop-color="#FEB538"/>
</linearGradient>
<linearGradient id="paint38_linear_99_39" x1="856.5" y1="662" x2="856.5" y2="880" gradientUnits="userSpaceOnUse">
<stop stop-color="#5B197B"/>
<stop offset="1" stop-color="#FEB538"/>
</linearGradient>
<linearGradient id="paint39_linear_99_39" x1="858.5" y1="694" x2="858.5" y2="911" gradientUnits="userSpaceOnUse">
<stop stop-color="#5B197B"/>
<stop offset="1" stop-color="#FEB538"/>
</linearGradient>
<linearGradient id="paint40_linear_99_39" x1="860.5" y1="725" x2="860.5" y2="943" gradientUnits="userSpaceOnUse">
<stop stop-color="#5B197B"/>
<stop offset="1" stop-color="#FEB538"/>
</linearGradient>
<linearGradient id="paint41_linear_99_39" x1="862.5" y1="757" x2="862.5" y2="975" gradientUnits="userSpaceOnUse">
<stop stop-color="#5B197B"/>
<stop offset="1" stop-color="#FEB538"/>
</linearGradient>
<linearGradient id="paint42_linear_99_39" x1="864.5" y1="789" x2="864.5" y2="1006" gradientUnits="userSpaceOnUse">
<stop stop-color="#5B197B"/>
<stop offset="1" stop-color="#FEB538"/>
</linearGradient>
<linearGradient id="paint43_linear_99_39" x1="866.5" y1="820" x2="866.5" y2="1038" gradientUnits="userSpaceOnUse">
<stop stop-color="#5B197B"/>
<stop offset="1" stop-color="#FEB538"/>
</linearGradient>
<linearGradient id="paint44_linear_99_39" x1="868.5" y1="852" x2="868.5" y2="1070" gradientUnits="userSpaceOnUse">
<stop stop-color="#5B197B"/>
<stop offset="1" stop-color="#FEB538"/>
</linearGradient>
<linearGradient id="paint45_linear_99_39" x1="870.5" y1="884" x2="870.5" y2="1101" gradientUnits="userSpaceOnUse">
<stop stop-color="#5B197B"/>
<stop offset="1" stop-color="#FEB538"/>
</linearGradient>
<linearGradient id="paint46_linear_99_39" x1="872.5" y1="915" x2="872.5" y2="1133" gradientUnits="userSpaceOnUse">
<stop stop-color="#5B197B"/>
<stop offset="1" stop-color="#FEB538"/>
</linearGradient>
</defs>
</svg>
